<?xml version="1.0" encoding="UTF-8" standalone="no"?>
<!-- Created with Inkscape (http://www.inkscape.org/) -->

<svg
   xmlns:dc="http://purl.org/dc/elements/1.1/"
   xmlns:cc="http://creativecommons.org/ns#"
   xmlns:rdf="http://www.w3.org/1999/02/22-rdf-syntax-ns#"
   xmlns:svg="http://www.w3.org/2000/svg"
   xmlns="http://www.w3.org/2000/svg"
   xmlns:sodipodi="http://sodipodi.sourceforge.net/DTD/sodipodi-0.dtd"
   xmlns:inkscape="http://www.inkscape.org/namespaces/inkscape"
   version="1.1"
   id="svg2"
   xml:space="preserve"
   width="100"
   height="23.709"
   viewBox="0 0 100 23.708998"
   sodipodi:docname="kitkard_white.svg"
   inkscape:version="0.92.3 (2405546, 2018-03-11)"><metadata
     id="metadata8"><rdf:RDF><cc:Work
         rdf:about=""><dc:format>image/svg+xml</dc:format><dc:type
           rdf:resource="http://purl.org/dc/dcmitype/StillImage" /><dc:title></dc:title></cc:Work></rdf:RDF></metadata><defs
     id="defs6"><clipPath
       clipPathUnits="userSpaceOnUse"
       id="clipPath18"><path
         d="M 0,1200 H 1200 V 0 H 0 Z"
         id="path16"
         inkscape:connector-curvature="0" /></clipPath></defs><sodipodi:namedview
     pagecolor="#ffffff"
     bordercolor="#666666"
     borderopacity="1"
     objecttolerance="10"
     gridtolerance="10"
     guidetolerance="10"
     inkscape:pageopacity="0"
     inkscape:pageshadow="2"
     inkscape:window-width="1920"
     inkscape:window-height="1021"
     id="namedview4"
     showgrid="false"
     inkscape:showpageshadow="false"
     inkscape:zoom="4.72"
     inkscape:cx="30.365744"
     inkscape:cy="5.7256873"
     inkscape:window-x="0"
     inkscape:window-y="30"
     inkscape:window-maximized="1"
     inkscape:current-layer="g10" /><g
     id="g10"
     inkscape:groupmode="layer"
     inkscape:label="лого_9"
     transform="matrix(1.3333333,0,0,-1.3333333,0,23.709005)"><g
       id="g12"
       transform="matrix(0.21908906,0,0,0.21908906,-94.063212,-122.39543)"
       style="stroke-width:4.56435394;fill:#ffffff;fill-opacity:1"><g
         id="g14"
         clip-path="url(#clipPath18)"
         style="stroke-width:4.56435394;fill:#ffffff;fill-opacity:1"><g
           id="g20"
           transform="translate(516.4634,561.8643)"
           style="stroke-width:4.56435394;fill:#ffffff;fill-opacity:1"><path
             d="M 0,0 C 0,-0.636 -0.232,-1.187 -0.695,-1.646 -1.157,-2.11 -1.708,-2.34 -2.342,-2.34 h -10.923 c -0.64,0 -1.186,0.23 -1.649,0.694 -0.463,0.459 -0.693,1.01 -0.693,1.646 v 40.405 c 0,0.636 0.23,1.184 0.693,1.647 0.463,0.463 1.009,0.693 1.649,0.693 h 10.923 c 0.634,0 1.185,-0.23 1.647,-0.693 C -0.232,41.589 0,41.041 0,40.405 Z M 0,49.855 C 0,49.218 -0.232,48.67 -0.695,48.21 -1.157,47.745 -1.708,47.516 -2.342,47.516 h -10.923 c -0.64,0 -1.186,0.229 -1.649,0.694 -0.463,0.46 -0.693,1.008 -0.693,1.645 v 8.756 c 0,0.639 0.23,1.186 0.693,1.651 0.463,0.46 1.009,0.693 1.649,0.693 h 10.923 c 0.634,0 1.185,-0.233 1.647,-0.693 C -0.232,59.797 0,59.25 0,58.611 Z"
             style="fill:#ffffff;fill-opacity:1;fill-rule:nonzero;stroke:none;stroke-width:4.56435394"
             id="path22"
             inkscape:connector-curvature="0" /></g><g
           id="g24"
           transform="translate(552.0615,577.124)"
           style="stroke-width:4.56435394;fill:#ffffff;fill-opacity:1"><path
             d="M 0,0 C 0,-1.329 0.289,-2.354 0.867,-3.075 1.444,-3.8 2.396,-4.16 3.728,-4.16 h 6.938 c 0.635,0 1.184,-0.234 1.646,-0.694 0.461,-0.464 0.692,-1.012 0.692,-1.647 v -8.759 c 0,-0.636 -0.231,-1.186 -0.692,-1.645 C 11.85,-17.37 11.301,-17.6 10.666,-17.6 H 2.43 c -2.719,0 -5.191,0.391 -7.413,1.17 -2.229,0.78 -4.121,1.909 -5.682,3.38 -1.559,1.477 -2.773,3.269 -3.643,5.378 -0.865,2.11 -1.297,4.495 -1.297,7.152 v 14.566 h -6.416 c -0.639,0 -1.186,0.23 -1.65,0.694 -0.464,0.463 -0.693,1.013 -0.693,1.649 v 8.757 c 0,0.635 0.229,1.183 0.693,1.646 0.464,0.463 1.011,0.693 1.65,0.693 h 6.416 v 14.134 c 0,0.635 0.23,1.185 0.691,1.649 0.463,0.461 1.011,0.691 1.648,0.691 H -2.34 c 0.634,0 1.183,-0.23 1.646,-0.691 C -0.233,42.804 0,42.254 0,41.619 V 27.485 h 9.795 c 0.639,0 1.186,-0.23 1.65,-0.693 0.463,-0.463 0.694,-1.011 0.694,-1.646 v -8.757 c 0,-0.636 -0.231,-1.186 -0.694,-1.649 -0.464,-0.464 -1.011,-0.694 -1.65,-0.694 H 0 Z"
             style="fill:#ffffff;fill-opacity:1;fill-rule:nonzero;stroke:none;stroke-width:4.56435394"
             id="path26"
             inkscape:connector-curvature="0" /></g><g
           id="g28"
           transform="translate(592.9121,590.6494)"
           style="stroke-width:4.56435394;fill:#ffffff;fill-opacity:1"><path
             d="m 0,0 11.444,12.488 c 0.288,0.288 0.721,0.607 1.3,0.952 0.578,0.348 1.27,0.52 2.078,0.52 H 27.57 c 0.578,0 1.07,-0.201 1.473,-0.606 0.405,-0.406 0.607,-0.896 0.607,-1.473 0,-0.291 -0.044,-0.535 -0.128,-0.739 C 29.434,10.94 29.16,10.608 28.7,10.146 L 13.266,-7.021 31.471,-27.397 c 0.347,-0.406 0.578,-0.708 0.696,-0.91 0.111,-0.203 0.173,-0.449 0.173,-0.738 0,-0.577 -0.202,-1.069 -0.606,-1.475 -0.405,-0.403 -0.899,-0.605 -1.477,-0.605 H 17.34 c -0.866,0 -1.576,0.13 -2.127,0.391 -0.55,0.256 -1.025,0.62 -1.43,1.084 L 0,-14.132 v -14.653 c 0,-0.636 -0.235,-1.187 -0.696,-1.646 -0.461,-0.465 -1.011,-0.694 -1.646,-0.694 H -13.27 c -0.634,0 -1.186,0.229 -1.646,0.694 -0.461,0.459 -0.692,1.01 -0.692,1.646 v 56.879 c 0,0.635 0.231,1.184 0.692,1.648 0.46,0.462 1.012,0.692 1.646,0.692 h 10.928 c 0.635,0 1.185,-0.23 1.646,-0.692 C -0.235,29.278 0,28.729 0,28.094 Z"
             style="fill:#ffffff;fill-opacity:1;fill-rule:nonzero;stroke:none;stroke-width:4.56435394"
             id="path30"
             inkscape:connector-curvature="0" /></g><g
           id="g32"
           transform="translate(650.2793,570.3613)"
           style="stroke-width:4.56435394;fill:#ffffff;fill-opacity:1"><path
             d="m 0,0 c 1.271,0 2.456,0.218 3.556,0.65 1.096,0.434 2.052,1.028 2.862,1.778 0.809,0.751 1.443,1.633 1.908,2.646 0.462,1.009 0.693,2.093 0.693,3.25 L 1.039,7.111 C -0.517,6.821 -1.778,6.329 -2.728,5.636 -3.683,4.942 -4.163,4.046 -4.163,2.948 -4.163,1.85 -3.801,1.084 -3.076,0.65 -2.357,0.218 -1.331,0 0,0 m -19.766,1.994 c 0,3.818 1.458,6.965 4.375,9.451 2.921,2.485 7.676,4.307 14.262,5.461 l 10.148,1.737 c 0,1.388 -0.376,2.528 -1.13,3.424 -0.747,0.897 -2.051,1.344 -3.899,1.344 -1.332,0 -2.357,-0.188 -3.076,-0.562 -0.725,-0.376 -1.262,-0.711 -1.604,-0.998 -0.523,-0.463 -1.012,-0.752 -1.479,-0.868 -0.46,-0.115 -1.011,-0.174 -1.645,-0.174 h -11.013 c -0.578,0 -1.053,0.174 -1.429,0.522 -0.378,0.346 -0.537,0.807 -0.476,1.386 0.113,1.329 0.691,2.716 1.731,4.163 1.044,1.443 2.475,2.772 4.295,3.988 1.82,1.214 3.989,2.224 6.5,3.035 2.518,0.809 5.245,1.214 8.196,1.214 3.523,0 6.59,-0.432 9.191,-1.301 2.601,-0.868 4.751,-2.069 6.459,-3.599 1.703,-1.531 2.963,-3.352 3.772,-5.461 0.81,-2.112 1.214,-4.439 1.214,-6.982 V -8.497 c 0,-0.636 -0.23,-1.187 -0.695,-1.646 -0.463,-0.464 -1.013,-0.694 -1.647,-0.694 H 11.361 c -0.64,0 -1.186,0.23 -1.65,0.694 -0.463,0.459 -0.692,1.01 -0.692,1.646 v 2.429 c -1.388,-1.735 -3.111,-3.109 -5.162,-4.121 -2.05,-1.008 -4.755,-1.516 -8.104,-1.516 -2.487,0 -4.699,0.348 -6.632,1.042 -1.938,0.694 -3.558,1.646 -4.855,2.86 -1.303,1.214 -2.301,2.657 -2.992,4.334 -0.697,1.676 -1.04,3.498 -1.04,5.463"
             style="fill:#ffffff;fill-opacity:1;fill-rule:nonzero;stroke:none;stroke-width:4.56435394"
             id="path34"
             inkscape:connector-curvature="0" /></g><g
           id="g36"
           transform="translate(716.3662,604.6094)"
           style="stroke-width:4.56435394;fill:#ffffff;fill-opacity:1"><path
             d="M 0,0 C 0.636,0 1.186,-0.23 1.647,-0.693 2.113,-1.156 2.343,-1.704 2.343,-2.34 v -8.757 c 0,-0.635 -0.23,-1.185 -0.696,-1.648 C 1.186,-13.209 0.636,-13.439 0,-13.439 h -7.888 c -5.32,0 -7.977,-2.658 -7.977,-7.975 v -21.331 c 0,-0.636 -0.232,-1.187 -0.693,-1.646 -0.465,-0.464 -1.015,-0.694 -1.65,-0.694 h -10.923 c -0.635,0 -1.185,0.23 -1.647,0.694 -0.465,0.459 -0.696,1.01 -0.696,1.646 V -2.34 c 0,0.636 0.231,1.184 0.696,1.647 0.462,0.463 1.012,0.693 1.647,0.693 h 10.057 c 0.635,0 1.185,-0.23 1.647,-0.693 0.459,-0.463 0.696,-1.011 0.696,-1.647 v -1.995 c 1.327,1.271 2.93,2.313 4.812,3.121 1.877,0.81 4.115,1.214 6.718,1.214 z"
             style="fill:#ffffff;fill-opacity:1;fill-rule:nonzero;stroke:none;stroke-width:4.56435394"
             id="path38"
             inkscape:connector-curvature="0" /></g><g
           id="g40"
           transform="translate(740.5283,584.4961)"
           style="stroke-width:4.56435394;fill:#ffffff;fill-opacity:1"><path
             d="m 0,0 c -0.169,-1.619 -0.169,-3.239 0,-4.857 0.174,-2.023 0.838,-3.784 1.996,-5.289 1.155,-1.505 3.095,-2.254 5.808,-2.254 1.276,0 2.371,0.201 3.298,0.607 0.921,0.403 1.689,0.938 2.295,1.604 0.608,0.665 1.087,1.401 1.43,2.21 0.349,0.808 0.578,1.65 0.697,2.515 0.114,0.866 0.174,1.879 0.174,3.037 0,1.153 -0.06,2.166 -0.174,3.032 -0.119,0.87 -0.348,1.704 -0.697,2.515 -0.343,0.81 -0.822,1.546 -1.43,2.211 -0.606,0.663 -1.374,1.2 -2.295,1.605 C 10.175,7.34 9.08,7.542 7.804,7.542 5.091,7.542 3.151,6.789 1.996,5.289 0.838,3.783 0.174,2.021 0,0 m 3.904,20.982 c 1.676,0 3.152,-0.173 4.422,-0.521 1.271,-0.348 2.371,-0.779 3.292,-1.3 0.928,-0.519 1.709,-1.084 2.343,-1.691 0.637,-0.608 1.158,-1.171 1.563,-1.692 v 18.469 c 0,0.635 0.229,1.185 0.692,1.649 0.46,0.461 1.011,0.691 1.645,0.691 h 10.928 c 0.636,0 1.186,-0.23 1.648,-0.691 0.459,-0.464 0.695,-1.014 0.695,-1.649 v -56.879 c 0,-0.636 -0.236,-1.186 -0.695,-1.645 -0.462,-0.465 -1.012,-0.695 -1.648,-0.695 h -10.49 c -0.64,0 -1.186,0.23 -1.651,0.695 -0.461,0.459 -0.692,1.009 -0.692,1.645 v 1.994 c -0.521,-0.636 -1.082,-1.256 -1.688,-1.862 -0.607,-0.606 -1.36,-1.157 -2.259,-1.649 -0.893,-0.492 -1.994,-0.896 -3.292,-1.213 -1.303,-0.319 -2.907,-0.478 -4.813,-0.478 -2.6,0 -5.056,0.391 -7.371,1.172 -2.309,0.78 -4.333,1.994 -6.068,3.64 -1.736,1.649 -3.137,3.715 -4.205,6.2 -1.068,2.483 -1.66,5.432 -1.779,8.844 -0.056,0.867 -0.085,2.038 -0.085,3.511 0,1.474 0.029,2.647 0.085,3.512 0.119,3.411 0.711,6.357 1.779,8.843 1.068,2.486 2.469,4.554 4.205,6.2 1.735,1.649 3.759,2.875 6.068,3.687 2.315,0.808 4.771,1.213 7.371,1.213"
             style="fill:#ffffff;fill-opacity:1;fill-rule:nonzero;stroke:none;stroke-width:4.56435394"
             id="path42"
             inkscape:connector-curvature="0" /></g><g
           id="g44"
           transform="translate(450.0459,563.8223)"
           style="stroke-width:4.56435394;fill:#ffffff;fill-opacity:1"><path
             d="m 0,0 v 29.501 c 0,0 2.339,1.347 5.813,1.347 3.475,0 5.035,-1.276 6.061,-4.286 0.993,-2.914 5.078,-17.146 6.249,-19.957 1.419,-3.402 5.417,-14.683 23.922,-9.507 0,0 -3.333,-0.141 -5.956,8.863 -2.624,9.005 -5.46,19.144 -5.46,19.144 0,0 -1.347,8.782 -14.109,10.701 12.762,1.919 14.109,10.701 14.109,10.701 0,0 2.836,10.139 5.46,19.143 2.623,9.005 5.956,8.864 5.956,8.864 C 23.54,79.689 19.542,68.409 18.123,65.006 16.952,62.195 12.867,47.963 11.874,45.05 10.848,42.04 9.288,40.764 5.813,40.764 2.339,40.764 0,42.11 0,42.11 v 29.501 c 0,2.422 -1.963,4.385 -4.385,4.385 h -11.94 c -2.422,0 -4.385,-1.963 -4.385,-4.385 V 0 c 0,-2.422 1.963,-4.385 4.385,-4.385 h 11.94 C -1.963,-4.385 0,-2.422 0,0"
             style="fill:#ffffff;fill-opacity:1;fill-rule:nonzero;stroke:none;stroke-width:4.56435394"
             id="path46"
             inkscape:connector-curvature="0" /></g></g></g></g></svg>