<?xml version="1.0" encoding="UTF-8" standalone="no"?>
<!-- Created with Inkscape (http://www.inkscape.org/) -->

<svg
   xmlns:dc="http://purl.org/dc/elements/1.1/"
   xmlns:cc="http://creativecommons.org/ns#"
   xmlns:rdf="http://www.w3.org/1999/02/22-rdf-syntax-ns#"
   xmlns:svg="http://www.w3.org/2000/svg"
   xmlns="http://www.w3.org/2000/svg"
   xmlns:sodipodi="http://sodipodi.sourceforge.net/DTD/sodipodi-0.dtd"
   xmlns:inkscape="http://www.inkscape.org/namespaces/inkscape"
   width="513"
   height="512"
   viewBox="0 0 135.73124 135.46667"
   version="1.1"
   id="svg8"
   inkscape:version="0.92.3 (2405546, 2018-03-11)"
   sodipodi:docname="logo_white.svg">
  <defs
     id="defs2" />
  <sodipodi:namedview
     id="base"
     pagecolor="#ffffff"
     bordercolor="#666666"
     borderopacity="1.0"
     inkscape:pageopacity="0.0"
     inkscape:pageshadow="2"
     inkscape:zoom="0.98994949"
     inkscape:cx="-89.858578"
     inkscape:cy="215.11282"
     inkscape:document-units="px"
     inkscape:current-layer="layer2"
     showgrid="false"
     units="px"
     inkscape:showpageshadow="false"
     inkscape:window-width="1920"
     inkscape:window-height="1019"
     inkscape:window-x="0"
     inkscape:window-y="32"
     inkscape:window-maximized="1" />
  <metadata
     id="metadata5">
    <rdf:RDF>
      <cc:Work
         rdf:about="">
        <dc:format>image/svg+xml</dc:format>
        <dc:type
           rdf:resource="http://purl.org/dc/dcmitype/StillImage" />
        <dc:title></dc:title>
      </cc:Work>
    </rdf:RDF>
  </metadata>
  <g
     inkscape:label="Layer 1"
     inkscape:groupmode="layer"
     id="layer1"
     transform="translate(0,-161.53332)"
     style="display:none">
    <circle
       style="opacity:1;vector-effect:none;fill:#000000;fill-opacity:1;stroke:none;stroke-width:9.71261787;stroke-linecap:round;stroke-linejoin:miter;stroke-miterlimit:4;stroke-dasharray:none;stroke-dashoffset:0;stroke-opacity:1;paint-order:fill markers stroke"
       id="path815"
       cx="67.73333"
       cy="229.26665"
       r="62.877022" />
  </g>
  <g
     inkscape:groupmode="layer"
     id="layer2"
     inkscape:label="Layer 2">
    <path
       style="fill:#ffffff;stroke-width:0.26458332;fill-opacity:1"
       d="m 18.97164,108.6314 c -1.43115,-0.38482 -2.639416,-1.4033 -3.385455,-2.85367 -0.468607,-0.91102 -0.504936,-1.64943 -0.504936,-10.263149 0,-8.665453 0.03409,-9.348316 0.513579,-10.288193 0.670924,-1.31512 2.130506,-2.577576 3.381793,-2.925061 0.656133,-0.182211 7.790414,-0.278048 20.770228,-0.279019 l 19.77081,-0.0016 0.367824,-0.727604 c 0.960929,-1.900843 1.313235,-3.65561 1.339233,-6.670455 0.0314,-3.641889 -0.395793,-5.049684 -1.961589,-6.464284 C 57.806382,66.842408 56.787254,66.393826 51.990623,64.957408 47.560861,63.630851 42.185506,61.996511 37.041665,60.412276 27.84599,57.580132 24.218322,55.855485 20.921232,52.748381 17.807505,49.814078 15.997324,45.856319 15.336423,40.537819 c -0.33906,-2.728532 -0.177006,-4.87258 0.729147,-9.646962 l 0.690336,-3.637272 0.551734,0.892225 c 1.751443,2.832309 6.955041,5.463789 14.706942,7.437353 0.945885,0.240815 3.029479,0.836075 4.630208,1.3228 1.600729,0.486725 4.934479,1.443551 7.408333,2.126279 2.473854,0.682728 5.688542,1.588796 7.14375,2.013484 1.455208,0.424685 3.26925,0.953225 4.031205,1.17453 3.159699,0.917718 7.091148,4.39728 9.170146,8.116118 0.992944,1.776142 2.666799,6.492063 2.960478,8.340844 0.244959,1.542103 0.5442,1.61612 0.75842,0.187601 0.281853,-1.879529 1.921984,-6.67578 2.839009,-8.302134 1.315815,-2.333617 3.27326,-4.655817 5.05089,-5.992085 2.183463,-1.64134 3.264262,-2.163696 5.764334,-2.785927 1.157028,-0.287967 2.430629,-0.649319 2.830227,-0.803005 0.399597,-0.153686 1.738572,-0.552429 2.975499,-0.8861 5.822296,-1.570607 11.08942,-3.062309 12.167287,-3.445896 0.652892,-0.23235 2.141172,-0.665457 3.307292,-0.962457 8.20785,-2.090483 13.80562,-4.887922 15.19326,-7.592702 l 0.45273,-0.882454 0.58978,2.731992 c 0.96763,4.482184 1.23254,7.751296 0.8683,10.715145 -0.36777,2.992657 -1.56846,6.797778 -2.74069,8.685596 -1.89066,3.044798 -5.40844,5.929091 -9.46765,7.762706 -1.70529,0.770308 -10.4171,3.711091 -12.697393,4.286168 -0.654844,0.165151 -2.619375,0.751393 -4.365625,1.302764 -1.74625,0.55137 -5.08,1.5719 -7.408333,2.267844 -2.328333,0.695944 -4.676508,1.485355 -5.218165,1.754248 -1.505019,0.747131 -2.752609,1.966114 -3.417086,3.338743 -0.523182,1.080743 -0.599048,1.638477 -0.583271,4.28785 0.01847,3.099726 0.244853,4.376436 1.150871,6.490087 l 0.508222,1.185632 19.787005,0.0016 c 13.502265,0.0011 20.123155,0.09343 20.845335,0.291002 1.6038,0.438751 3.43611,2.453934 3.80802,4.188077 0.39086,1.822537 0.39086,16.203847 0,18.026387 -0.42366,1.97547 -2.21161,3.7781 -4.15177,4.18587 -2.17842,0.45785 -95.518587,0.37889 -97.23356,-0.0822 z"
       id="path866"
       inkscape:connector-curvature="0" />
  </g>
</svg>
